<svg xmlns="http://www.w3.org/2000/svg" fill="none" viewBox="0 0 464 464" height="464" width="464">
<path fill="#2B1463" d="M8 160C12.4183 160 16 156.418 16 152C16 147.582 12.4183 144 8 144C3.58172 144 0 147.582 0 152C0 156.418 3.58172 160 8 160Z"></path>
<path fill="#2B1463" d="M8 176C12.4183 176 16 172.418 16 168C16 163.582 12.4183 160 8 160C3.58172 160 0 163.582 0 168C0 172.418 3.58172 176 8 176Z"></path>
<path fill="#2B1463" d="M8 208C12.4183 208 16 204.418 16 200C16 195.582 12.4183 192 8 192C3.58172 192 0 195.582 0 200C0 204.418 3.58172 208 8 208Z"></path>
<path fill="#2B1463" d="M24 192C28.4183 192 32 188.418 32 184C32 179.582 28.4183 176 24 176C19.5817 176 16 179.582 16 184C16 188.418 19.5817 192 24 192Z"></path>
<path fill="#2B1463" d="M24 208C28.4183 208 32 204.418 32 200C32 195.582 28.4183 192 24 192C19.5817 192 16 195.582 16 200C16 204.418 19.5817 208 24 208Z"></path>
<path fill="#2B1463" d="M24 224C28.4183 224 32 220.418 32 216C32 211.582 28.4183 208 24 208C19.5817 208 16 211.582 16 216C16 220.418 19.5817 224 24 224Z"></path>
<path fill="#2B1463" d="M24 256C28.4183 256 32 252.418 32 248C32 243.582 28.4183 240 24 240C19.5817 240 16 243.582 16 248C16 252.418 19.5817 256 24 256Z"></path>
<path fill="#2B1463" d="M24 272C28.4183 272 32 268.418 32 264C32 259.582 28.4183 256 24 256C19.5817 256 16 259.582 16 264C16 268.418 19.5817 272 24 272Z"></path>
<path fill="#2B1463" d="M24 304C28.4183 304 32 300.418 32 296C32 291.582 28.4183 288 24 288C19.5817 288 16 291.582 16 296C16 300.418 19.5817 304 24 304Z"></path>
<path fill="#2B1463" d="M24 320C28.4183 320 32 316.418 32 312C32 307.582 28.4183 304 24 304C19.5817 304 16 307.582 16 312C16 316.418 19.5817 320 24 320Z"></path>
<path fill="#2B1463" d="M40 144C44.4183 144 48 140.418 48 136C48 131.582 44.4183 128 40 128C35.5817 128 32 131.582 32 136C32 140.418 35.5817 144 40 144Z"></path>
<path fill="#2B1463" d="M40 160C44.4183 160 48 156.418 48 152C48 147.582 44.4183 144 40 144C35.5817 144 32 147.582 32 152C32 156.418 35.5817 160 40 160Z"></path>
<path fill="#2B1463" d="M40 176C44.4183 176 48 172.418 48 168C48 163.582 44.4183 160 40 160C35.5817 160 32 163.582 32 168C32 172.418 35.5817 176 40 176Z"></path>
<path fill="#2B1463" d="M40 192C44.4183 192 48 188.418 48 184C48 179.582 44.4183 176 40 176C35.5817 176 32 179.582 32 184C32 188.418 35.5817 192 40 192Z"></path>
<path fill="#2B1463" d="M40 224C44.4183 224 48 220.418 48 216C48 211.582 44.4183 208 40 208C35.5817 208 32 211.582 32 216C32 220.418 35.5817 224 40 224Z"></path>
<path fill="#2B1463" d="M40 240C44.4183 240 48 236.418 48 232C48 227.582 44.4183 224 40 224C35.5817 224 32 227.582 32 232C32 236.418 35.5817 240 40 240Z"></path>
<path fill="#2B1463" d="M40 256C44.4183 256 48 252.418 48 248C48 243.582 44.4183 240 40 240C35.5817 240 32 243.582 32 248C32 252.418 35.5817 256 40 256Z"></path>
<path fill="#2B1463" d="M40 272C44.4183 272 48 268.418 48 264C48 259.582 44.4183 256 40 256C35.5817 256 32 259.582 32 264C32 268.418 35.5817 272 40 272Z"></path>
<path fill="#2B1463" d="M40 288C44.4183 288 48 284.418 48 280C48 275.582 44.4183 272 40 272C35.5817 272 32 275.582 32 280C32 284.418 35.5817 288 40 288Z"></path>
<path fill="#2B1463" d="M40 304C44.4183 304 48 300.418 48 296C48 291.582 44.4183 288 40 288C35.5817 288 32 291.582 32 296C32 300.418 35.5817 304 40 304Z"></path>
<path fill="#2B1463" d="M40 336C44.4183 336 48 332.418 48 328C48 323.582 44.4183 320 40 320C35.5817 320 32 323.582 32 328C32 332.418 35.5817 336 40 336Z"></path>
<path fill="#2B1463" d="M56 160C60.4183 160 64 156.418 64 152C64 147.582 60.4183 144 56 144C51.5817 144 48 147.582 48 152C48 156.418 51.5817 160 56 160Z"></path>
<path fill="#2B1463" d="M56 192C60.4183 192 64 188.418 64 184C64 179.582 60.4183 176 56 176C51.5817 176 48 179.582 48 184C48 188.418 51.5817 192 56 192Z"></path>
<path fill="#2B1463" d="M56 224C60.4183 224 64 220.418 64 216C64 211.582 60.4183 208 56 208C51.5817 208 48 211.582 48 216C48 220.418 51.5817 224 56 224Z"></path>
<path fill="#2B1463" d="M56 240C60.4183 240 64 236.418 64 232C64 227.582 60.4183 224 56 224C51.5817 224 48 227.582 48 232C48 236.418 51.5817 240 56 240Z"></path>
<path fill="#2B1463" d="M56 304C60.4183 304 64 300.418 64 296C64 291.582 60.4183 288 56 288C51.5817 288 48 291.582 48 296C48 300.418 51.5817 304 56 304Z"></path>
<path fill="#2B1463" d="M72 144C76.4183 144 80 140.418 80 136C80 131.582 76.4183 128 72 128C67.5817 128 64 131.582 64 136C64 140.418 67.5817 144 72 144Z"></path>
<path fill="#2B1463" d="M72 192C76.4183 192 80 188.418 80 184C80 179.582 76.4183 176 72 176C67.5817 176 64 179.582 64 184C64 188.418 67.5817 192 72 192Z"></path>
<path fill="#2B1463" d="M72 240C76.4183 240 80 236.418 80 232C80 227.582 76.4183 224 72 224C67.5817 224 64 227.582 64 232C64 236.418 67.5817 240 72 240Z"></path>
<path fill="#2B1463" d="M72 288C76.4183 288 80 284.418 80 280C80 275.582 76.4183 272 72 272C67.5817 272 64 275.582 64 280C64 284.418 67.5817 288 72 288Z"></path>
<path fill="#2B1463" d="M72 304C76.4183 304 80 300.418 80 296C80 291.582 76.4183 288 72 288C67.5817 288 64 291.582 64 296C64 300.418 67.5817 304 72 304Z"></path>
<path fill="#2B1463" d="M88 144C92.4183 144 96 140.418 96 136C96 131.582 92.4183 128 88 128C83.5817 128 80 131.582 80 136C80 140.418 83.5817 144 88 144Z"></path>
<path fill="#2B1463" d="M88 160C92.4183 160 96 156.418 96 152C96 147.582 92.4183 144 88 144C83.5817 144 80 147.582 80 152C80 156.418 83.5817 160 88 160Z"></path>
<path fill="#2B1463" d="M88 192C92.4183 192 96 188.418 96 184C96 179.582 92.4183 176 88 176C83.5817 176 80 179.582 80 184C80 188.418 83.5817 192 88 192Z"></path>
<path fill="#2B1463" d="M88 208C92.4183 208 96 204.418 96 200C96 195.582 92.4183 192 88 192C83.5817 192 80 195.582 80 200C80 204.418 83.5817 208 88 208Z"></path>
<path fill="#2B1463" d="M88 240C92.4183 240 96 236.418 96 232C96 227.582 92.4183 224 88 224C83.5817 224 80 227.582 80 232C80 236.418 83.5817 240 88 240Z"></path>
<path fill="#2B1463" d="M88 272C92.4183 272 96 268.418 96 264C96 259.582 92.4183 256 88 256C83.5817 256 80 259.582 80 264C80 268.418 83.5817 272 88 272Z"></path>
<path fill="#2B1463" d="M88 288C92.4183 288 96 284.418 96 280C96 275.582 92.4183 272 88 272C83.5817 272 80 275.582 80 280C80 284.418 83.5817 288 88 288Z"></path>
<path fill="#2B1463" d="M88 304C92.4183 304 96 300.418 96 296C96 291.582 92.4183 288 88 288C83.5817 288 80 291.582 80 296C80 300.418 83.5817 304 88 304Z"></path>
<path fill="#2B1463" d="M88 320C92.4183 320 96 316.418 96 312C96 307.582 92.4183 304 88 304C83.5817 304 80 307.582 80 312C80 316.418 83.5817 320 88 320Z"></path>
<path fill="#2B1463" d="M88 336C92.4183 336 96 332.418 96 328C96 323.582 92.4183 320 88 320C83.5817 320 80 323.582 80 328C80 332.418 83.5817 336 88 336Z"></path>
<path fill="#2B1463" d="M104 144C108.418 144 112 140.418 112 136C112 131.582 108.418 128 104 128C99.5817 128 96 131.582 96 136C96 140.418 99.5817 144 104 144Z"></path>
<path fill="#2B1463" d="M104 176C108.418 176 112 172.418 112 168C112 163.582 108.418 160 104 160C99.5817 160 96 163.582 96 168C96 172.418 99.5817 176 104 176Z"></path>
<path fill="#2B1463" d="M104 208C108.418 208 112 204.418 112 200C112 195.582 108.418 192 104 192C99.5817 192 96 195.582 96 200C96 204.418 99.5817 208 104 208Z"></path>
<path fill="#2B1463" d="M104 240C108.418 240 112 236.418 112 232C112 227.582 108.418 224 104 224C99.5817 224 96 227.582 96 232C96 236.418 99.5817 240 104 240Z"></path>
<path fill="#2B1463" d="M104 272C108.418 272 112 268.418 112 264C112 259.582 108.418 256 104 256C99.5817 256 96 259.582 96 264C96 268.418 99.5817 272 104 272Z"></path>
<path fill="#2B1463" d="M104 304C108.418 304 112 300.418 112 296C112 291.582 108.418 288 104 288C99.5817 288 96 291.582 96 296C96 300.418 99.5817 304 104 304Z"></path>
<path fill="#2B1463" d="M104 336C108.418 336 112 332.418 112 328C112 323.582 108.418 320 104 320C99.5817 320 96 323.582 96 328C96 332.418 99.5817 336 104 336Z"></path>
<path fill="#2B1463" d="M120 192C124.418 192 128 188.418 128 184C128 179.582 124.418 176 120 176C115.582 176 112 179.582 112 184C112 188.418 115.582 192 120 192Z"></path>
<path fill="#2B1463" d="M120 224C124.418 224 128 220.418 128 216C128 211.582 124.418 208 120 208C115.582 208 112 211.582 112 216C112 220.418 115.582 224 120 224Z"></path>
<path fill="#2B1463" d="M120 256C124.418 256 128 252.418 128 248C128 243.582 124.418 240 120 240C115.582 240 112 243.582 112 248C112 252.418 115.582 256 120 256Z"></path>
<path fill="#2B1463" d="M120 288C124.418 288 128 284.418 128 280C128 275.582 124.418 272 120 272C115.582 272 112 275.582 112 280C112 284.418 115.582 288 120 288Z"></path>
<path fill="#2B1463" d="M120 320C124.418 320 128 316.418 128 312C128 307.582 124.418 304 120 304C115.582 304 112 307.582 112 312C112 316.418 115.582 320 120 320Z"></path>
<path fill="#2B1463" d="M136 32C140.418 32 144 28.4183 144 24C144 19.5817 140.418 16 136 16C131.582 16 128 19.5817 128 24C128 28.4183 131.582 32 136 32Z"></path>
<path fill="#2B1463" d="M136 80C140.418 80 144 76.4183 144 72C144 67.5817 140.418 64 136 64C131.582 64 128 67.5817 128 72C128 76.4183 131.582 80 136 80Z"></path>
<path fill="#2B1463" d="M136 112C140.418 112 144 108.418 144 104C144 99.5817 140.418 96 136 96C131.582 96 128 99.5817 128 104C128 108.418 131.582 112 136 112Z"></path>
<path fill="#2B1463" d="M136 144C140.418 144 144 140.418 144 136C144 131.582 140.418 128 136 128C131.582 128 128 131.582 128 136C128 140.418 131.582 144 136 144Z"></path>
<path fill="#2B1463" d="M136 160C140.418 160 144 156.418 144 152C144 147.582 140.418 144 136 144C131.582 144 128 147.582 128 152C128 156.418 131.582 160 136 160Z"></path>
<path fill="#2B1463" d="M136 176C140.418 176 144 172.418 144 168C144 163.582 140.418 160 136 160C131.582 160 128 163.582 128 168C128 172.418 131.582 176 136 176Z"></path>
<path fill="#2B1463" d="M136 208C140.418 208 144 204.418 144 200C144 195.582 140.418 192 136 192C131.582 192 128 195.582 128 200C128 204.418 131.582 208 136 208Z"></path>
<path fill="#2B1463" d="M136 224C140.418 224 144 220.418 144 216C144 211.582 140.418 208 136 208C131.582 208 128 211.582 128 216C128 220.418 131.582 224 136 224Z"></path>
<path fill="#2B1463" d="M136 288C140.418 288 144 284.418 144 280C144 275.582 140.418 272 136 272C131.582 272 128 275.582 128 280C128 284.418 131.582 288 136 288Z"></path>
<path fill="#2B1463" d="M136 304C140.418 304 144 300.418 144 296C144 291.582 140.418 288 136 288C131.582 288 128 291.582 128 296C128 300.418 131.582 304 136 304Z"></path>
<path fill="#2B1463" d="M136 320C140.418 320 144 316.418 144 312C144 307.582 140.418 304 136 304C131.582 304 128 307.582 128 312C128 316.418 131.582 320 136 320Z"></path>
<path fill="#2B1463" d="M136 352C140.418 352 144 348.418 144 344C144 339.582 140.418 336 136 336C131.582 336 128 339.582 128 344C128 348.418 131.582 352 136 352Z"></path>
<path fill="#2B1463" d="M136 384C140.418 384 144 380.418 144 376C144 371.582 140.418 368 136 368C131.582 368 128 371.582 128 376C128 380.418 131.582 384 136 384Z"></path>
<path fill="#2B1463" d="M136 400C140.418 400 144 396.418 144 392C144 387.582 140.418 384 136 384C131.582 384 128 387.582 128 392C128 396.418 131.582 400 136 400Z"></path>
<path fill="#2B1463" d="M136 432C140.418 432 144 428.418 144 424C144 419.582 140.418 416 136 416C131.582 416 128 419.582 128 424C128 428.418 131.582 432 136 432Z"></path>
<path fill="#2B1463" d="M152 16C156.418 16 160 12.4183 160 8C160 3.58172 156.418 0 152 0C147.582 0 144 3.58172 144 8C144 12.4183 147.582 16 152 16Z"></path>
<path fill="#2B1463" d="M152 48C156.418 48 160 44.4183 160 40C160 35.5817 156.418 32 152 32C147.582 32 144 35.5817 144 40C144 44.4183 147.582 48 152 48Z"></path>
<path fill="#2B1463" d="M152 64C156.418 64 160 60.4183 160 56C160 51.5817 156.418 48 152 48C147.582 48 144 51.5817 144 56C144 60.4183 147.582 64 152 64Z"></path>
<path fill="#2B1463" d="M152 96C156.418 96 160 92.4183 160 88C160 83.5817 156.418 80 152 80C147.582 80 144 83.5817 144 88C144 92.4183 147.582 96 152 96Z"></path>
<path fill="#2B1463" d="M152 192C156.418 192 160 188.418 160 184C160 179.582 156.418 176 152 176C147.582 176 144 179.582 144 184C144 188.418 147.582 192 152 192Z"></path>
<path fill="#2B1463" d="M152 208C156.418 208 160 204.418 160 200C160 195.582 156.418 192 152 192C147.582 192 144 195.582 144 200C144 204.418 147.582 208 152 208Z"></path>
<path fill="#2B1463" d="M152 256C156.418 256 160 252.418 160 248C160 243.582 156.418 240 152 240C147.582 240 144 243.582 144 248C144 252.418 147.582 256 152 256Z"></path>
<path fill="#2B1463" d="M152 288C156.418 288 160 284.418 160 280C160 275.582 156.418 272 152 272C147.582 272 144 275.582 144 280C144 284.418 147.582 288 152 288Z"></path>
<path fill="#2B1463" d="M152 336C156.418 336 160 332.418 160 328C160 323.582 156.418 320 152 320C147.582 320 144 323.582 144 328C144 332.418 147.582 336 152 336Z"></path>
<path fill="#2B1463" d="M152 352C156.418 352 160 348.418 160 344C160 339.582 156.418 336 152 336C147.582 336 144 339.582 144 344C144 348.418 147.582 352 152 352Z"></path>
<path fill="#2B1463" d="M152 384C156.418 384 160 380.418 160 376C160 371.582 156.418 368 152 368C147.582 368 144 371.582 144 376C144 380.418 147.582 384 152 384Z"></path>
<path fill="#2B1463" d="M152 400C156.418 400 160 396.418 160 392C160 387.582 156.418 384 152 384C147.582 384 144 387.582 144 392C144 396.418 147.582 400 152 400Z"></path>
<path fill="#2B1463" d="M152 448C156.418 448 160 444.418 160 440C160 435.582 156.418 432 152 432C147.582 432 144 435.582 144 440C144 444.418 147.582 448 152 448Z"></path>
<path fill="#2B1463" d="M152 464C156.418 464 160 460.418 160 456C160 451.582 156.418 448 152 448C147.582 448 144 451.582 144 456C144 460.418 147.582 464 152 464Z"></path>
<path fill="#2B1463" d="M168 32C172.418 32 176 28.4183 176 24C176 19.5817 172.418 16 168 16C163.582 16 160 19.5817 160 24C160 28.4183 163.582 32 168 32Z"></path>
<path fill="#2B1463" d="M168 64C172.418 64 176 60.4183 176 56C176 51.5817 172.418 48 168 48C163.582 48 160 51.5817 160 56C160 60.4183 163.582 64 168 64Z"></path>
<path fill="#2B1463" d="M168 112C172.418 112 176 108.418 176 104C176 99.5817 172.418 96 168 96C163.582 96 160 99.5817 160 104C160 108.418 163.582 112 168 112Z"></path>
<path fill="#2B1463" d="M168 128C172.418 128 176 124.418 176 120C176 115.582 172.418 112 168 112C163.582 112 160 115.582 160 120C160 124.418 163.582 128 168 128Z"></path>
<path fill="#2B1463" d="M168 160C172.418 160 176 156.418 176 152C176 147.582 172.418 144 168 144C163.582 144 160 147.582 160 152C160 156.418 163.582 160 168 160Z"></path>
<path fill="#2B1463" d="M168 192C172.418 192 176 188.418 176 184C176 179.582 172.418 176 168 176C163.582 176 160 179.582 160 184C160 188.418 163.582 192 168 192Z"></path>
<path fill="#2B1463" d="M168 336C172.418 336 176 332.418 176 328C176 323.582 172.418 320 168 320C163.582 320 160 323.582 160 328C160 332.418 163.582 336 168 336Z"></path>
<path fill="#2B1463" d="M168 352C172.418 352 176 348.418 176 344C176 339.582 172.418 336 168 336C163.582 336 160 339.582 160 344C160 348.418 163.582 352 168 352Z"></path>
<path fill="#2B1463" d="M168 384C172.418 384 176 380.418 176 376C176 371.582 172.418 368 168 368C163.582 368 160 371.582 160 376C160 380.418 163.582 384 168 384Z"></path>
<path fill="#2B1463" d="M168 400C172.418 400 176 396.418 176 392C176 387.582 172.418 384 168 384C163.582 384 160 387.582 160 392C160 396.418 163.582 400 168 400Z"></path>
<path fill="#2B1463" d="M168 464C172.418 464 176 460.418 176 456C176 451.582 172.418 448 168 448C163.582 448 160 451.582 160 456C160 460.418 163.582 464 168 464Z"></path>
<path fill="#2B1463" d="M184 48C188.418 48 192 44.4183 192 40C192 35.5817 188.418 32 184 32C179.582 32 176 35.5817 176 40C176 44.4183 179.582 48 184 48Z"></path>
<path fill="#2B1463" d="M184 64C188.418 64 192 60.4183 192 56C192 51.5817 188.418 48 184 48C179.582 48 176 51.5817 176 56C176 60.4183 179.582 64 184 64Z"></path>
<path fill="#2B1463" d="M184 96C188.418 96 192 92.4183 192 88C192 83.5817 188.418 80 184 80C179.582 80 176 83.5817 176 88C176 92.4183 179.582 96 184 96Z"></path>
<path fill="#2B1463" d="M184 160C188.418 160 192 156.418 192 152C192 147.582 188.418 144 184 144C179.582 144 176 147.582 176 152C176 156.418 179.582 160 184 160Z"></path>
<path fill="#2B1463" d="M184 352C188.418 352 192 348.418 192 344C192 339.582 188.418 336 184 336C179.582 336 176 339.582 176 344C176 348.418 179.582 352 184 352Z"></path>
<path fill="#2B1463" d="M184 400C188.418 400 192 396.418 192 392C192 387.582 188.418 384 184 384C179.582 384 176 387.582 176 392C176 396.418 179.582 400 184 400Z"></path>
<path fill="#2B1463" d="M184 448C188.418 448 192 444.418 192 440C192 435.582 188.418 432 184 432C179.582 432 176 435.582 176 440C176 444.418 179.582 448 184 448Z"></path>
<path fill="#2B1463" d="M184 464C188.418 464 192 460.418 192 456C192 451.582 188.418 448 184 448C179.582 448 176 451.582 176 456C176 460.418 179.582 464 184 464Z"></path>
<path fill="#2B1463" d="M200 16C204.418 16 208 12.4183 208 8C208 3.58172 204.418 0 200 0C195.582 0 192 3.58172 192 8C192 12.4183 195.582 16 200 16Z"></path>
<path fill="#2B1463" d="M200 32C204.418 32 208 28.4183 208 24C208 19.5817 204.418 16 200 16C195.582 16 192 19.5817 192 24C192 28.4183 195.582 32 200 32Z"></path>
<path fill="#2B1463" d="M200 64C204.418 64 208 60.4183 208 56C208 51.5817 204.418 48 200 48C195.582 48 192 51.5817 192 56C192 60.4183 195.582 64 200 64Z"></path>
<path fill="#2B1463" d="M200 96C204.418 96 208 92.4183 208 88C208 83.5817 204.418 80 200 80C195.582 80 192 83.5817 192 88C192 92.4183 195.582 96 200 96Z"></path>
<path fill="#2B1463" d="M200 112C204.418 112 208 108.418 208 104C208 99.5817 204.418 96 200 96C195.582 96 192 99.5817 192 104C192 108.418 195.582 112 200 112Z"></path>
<path fill="#2B1463" d="M200 128C204.418 128 208 124.418 208 120C208 115.582 204.418 112 200 112C195.582 112 192 115.582 192 120C192 124.418 195.582 128 200 128Z"></path>
<path fill="#2B1463" d="M200 144C204.418 144 208 140.418 208 136C208 131.582 204.418 128 200 128C195.582 128 192 131.582 192 136C192 140.418 195.582 144 200 144Z"></path>
<path fill="#2B1463" d="M200 384C204.418 384 208 380.418 208 376C208 371.582 204.418 368 200 368C195.582 368 192 371.582 192 376C192 380.418 195.582 384 200 384Z"></path>
<path fill="#2B1463" d="M200 416C204.418 416 208 412.418 208 408C208 403.582 204.418 400 200 400C195.582 400 192 403.582 192 408C192 412.418 195.582 416 200 416Z"></path>
<path fill="#2B1463" d="M200 464C204.418 464 208 460.418 208 456C208 451.582 204.418 448 200 448C195.582 448 192 451.582 192 456C192 460.418 195.582 464 200 464Z"></path>
<path fill="#2B1463" d="M216 32C220.418 32 224 28.4183 224 24C224 19.5817 220.418 16 216 16C211.582 16 208 19.5817 208 24C208 28.4183 211.582 32 216 32Z"></path>
<path fill="#2B1463" d="M216 64C220.418 64 224 60.4183 224 56C224 51.5817 220.418 48 216 48C211.582 48 208 51.5817 208 56C208 60.4183 211.582 64 216 64Z"></path>
<path fill="#2B1463" d="M216 80C220.418 80 224 76.4183 224 72C224 67.5817 220.418 64 216 64C211.582 64 208 67.5817 208 72C208 76.4183 211.582 80 216 80Z"></path>
<path fill="#2B1463" d="M216 96C220.418 96 224 92.4183 224 88C224 83.5817 220.418 80 216 80C211.582 80 208 83.5817 208 88C208 92.4183 211.582 96 216 96Z"></path>
<path fill="#2B1463" d="M216 128C220.418 128 224 124.418 224 120C224 115.582 220.418 112 216 112C211.582 112 208 115.582 208 120C208 124.418 211.582 128 216 128Z"></path>
<path fill="#2B1463" d="M216 160C220.418 160 224 156.418 224 152C224 147.582 220.418 144 216 144C211.582 144 208 147.582 208 152C208 156.418 211.582 160 216 160Z"></path>
<path fill="#2B1463" d="M216 176C220.418 176 224 172.418 224 168C224 163.582 220.418 160 216 160C211.582 160 208 163.582 208 168C208 172.418 211.582 176 216 176Z"></path>
<path fill="#2B1463" d="M216 368C220.418 368 224 364.418 224 360C224 355.582 220.418 352 216 352C211.582 352 208 355.582 208 360C208 364.418 211.582 368 216 368Z"></path>
<path fill="#2B1463" d="M216 400C220.418 400 224 396.418 224 392C224 387.582 220.418 384 216 384C211.582 384 208 387.582 208 392C208 396.418 211.582 400 216 400Z"></path>
<path fill="#2B1463" d="M216 432C220.418 432 224 428.418 224 424C224 419.582 220.418 416 216 416C211.582 416 208 419.582 208 424C208 428.418 211.582 432 216 432Z"></path>
<path fill="#2B1463" d="M216 464C220.418 464 224 460.418 224 456C224 451.582 220.418 448 216 448C211.582 448 208 451.582 208 456C208 460.418 211.582 464 216 464Z"></path>
<path fill="#2B1463" d="M232 32C236.418 32 240 28.4183 240 24C240 19.5817 236.418 16 232 16C227.582 16 224 19.5817 224 24C224 28.4183 227.582 32 232 32Z"></path>
<path fill="#2B1463" d="M232 48C236.418 48 240 44.4183 240 40C240 35.5817 236.418 32 232 32C227.582 32 224 35.5817 224 40C224 44.4183 227.582 48 232 48Z"></path>
<path fill="#2B1463" d="M232 64C236.418 64 240 60.4183 240 56C240 51.5817 236.418 48 232 48C227.582 48 224 51.5817 224 56C224 60.4183 227.582 64 232 64Z"></path>
<path fill="#2B1463" d="M232 80C236.418 80 240 76.4183 240 72C240 67.5817 236.418 64 232 64C227.582 64 224 67.5817 224 72C224 76.4183 227.582 80 232 80Z"></path>
<path fill="#2B1463" d="M232 96C236.418 96 240 92.4183 240 88C240 83.5817 236.418 80 232 80C227.582 80 224 83.5817 224 88C224 92.4183 227.582 96 232 96Z"></path>
<path fill="#2B1463" d="M232 112C236.418 112 240 108.418 240 104C240 99.5817 236.418 96 232 96C227.582 96 224 99.5817 224 104C224 108.418 227.582 112 232 112Z"></path>
<path fill="#2B1463" d="M232 128C236.418 128 240 124.418 240 120C240 115.582 236.418 112 232 112C227.582 112 224 115.582 224 120C224 124.418 227.582 128 232 128Z"></path>
<path fill="#2B1463" d="M232 144C236.418 144 240 140.418 240 136C240 131.582 236.418 128 232 128C227.582 128 224 131.582 224 136C224 140.418 227.582 144 232 144Z"></path>
<path fill="#2B1463" d="M232 160C236.418 160 240 156.418 240 152C240 147.582 236.418 144 232 144C227.582 144 224 147.582 224 152C224 156.418 227.582 160 232 160Z"></path>
<path fill="#2B1463" d="M232 176C236.418 176 240 172.418 240 168C240 163.582 236.418 160 232 160C227.582 160 224 163.582 224 168C224 172.418 227.582 176 232 176Z"></path>
<path fill="#2B1463" d="M232 336C236.418 336 240 332.418 240 328C240 323.582 236.418 320 232 320C227.582 320 224 323.582 224 328C224 332.418 227.582 336 232 336Z"></path>
<path fill="#2B1463" d="M232 368C236.418 368 240 364.418 240 360C240 355.582 236.418 352 232 352C227.582 352 224 355.582 224 360C224 364.418 227.582 368 232 368Z"></path>
<path fill="#2B1463" d="M232 400C236.418 400 240 396.418 240 392C240 387.582 236.418 384 232 384C227.582 384 224 387.582 224 392C224 396.418 227.582 400 232 400Z"></path>
<path fill="#2B1463" d="M232 464C236.418 464 240 460.418 240 456C240 451.582 236.418 448 232 448C227.582 448 224 451.582 224 456C224 460.418 227.582 464 232 464Z"></path>
<path fill="#2B1463" d="M248 16C252.418 16 256 12.4183 256 8C256 3.58172 252.418 0 248 0C243.582 0 240 3.58172 240 8C240 12.4183 243.582 16 248 16Z"></path>
<path fill="#2B1463" d="M248 32C252.418 32 256 28.4183 256 24C256 19.5817 252.418 16 248 16C243.582 16 240 19.5817 240 24C240 28.4183 243.582 32 248 32Z"></path>
<path fill="#2B1463" d="M248 48C252.418 48 256 44.4183 256 40C256 35.5817 252.418 32 248 32C243.582 32 240 35.5817 240 40C240 44.4183 243.582 48 248 48Z"></path>
<path fill="#2B1463" d="M248 64C252.418 64 256 60.4183 256 56C256 51.5817 252.418 48 248 48C243.582 48 240 51.5817 240 56C240 60.4183 243.582 64 248 64Z"></path>
<path fill="#2B1463" d="M248 80C252.418 80 256 76.4183 256 72C256 67.5817 252.418 64 248 64C243.582 64 240 67.5817 240 72C240 76.4183 243.582 80 248 80Z"></path>
<path fill="#2B1463" d="M248 96C252.418 96 256 92.4183 256 88C256 83.5817 252.418 80 248 80C243.582 80 240 83.5817 240 88C240 92.4183 243.582 96 248 96Z"></path>
<path fill="#2B1463" d="M248 144C252.418 144 256 140.418 256 136C256 131.582 252.418 128 248 128C243.582 128 240 131.582 240 136C240 140.418 243.582 144 248 144Z"></path>
<path fill="#2B1463" d="M248 320C252.418 320 256 316.418 256 312C256 307.582 252.418 304 248 304C243.582 304 240 307.582 240 312C240 316.418 243.582 320 248 320Z"></path>
<path fill="#2B1463" d="M248 384C252.418 384 256 380.418 256 376C256 371.582 252.418 368 248 368C243.582 368 240 371.582 240 376C240 380.418 243.582 384 248 384Z"></path>
<path fill="#2B1463" d="M248 416C252.418 416 256 412.418 256 408C256 403.582 252.418 400 248 400C243.582 400 240 403.582 240 408C240 412.418 243.582 416 248 416Z"></path>
<path fill="#2B1463" d="M248 448C252.418 448 256 444.418 256 440C256 435.582 252.418 432 248 432C243.582 432 240 435.582 240 440C240 444.418 243.582 448 248 448Z"></path>
<path fill="#2B1463" d="M264 32C268.418 32 272 28.4183 272 24C272 19.5817 268.418 16 264 16C259.582 16 256 19.5817 256 24C256 28.4183 259.582 32 264 32Z"></path>
<path fill="#2B1463" d="M264 48C268.418 48 272 44.4183 272 40C272 35.5817 268.418 32 264 32C259.582 32 256 35.5817 256 40C256 44.4183 259.582 48 264 48Z"></path>
<path fill="#2B1463" d="M264 80C268.418 80 272 76.4183 272 72C272 67.5817 268.418 64 264 64C259.582 64 256 67.5817 256 72C256 76.4183 259.582 80 264 80Z"></path>
<path fill="#2B1463" d="M264 112C268.418 112 272 108.418 272 104C272 99.5817 268.418 96 264 96C259.582 96 256 99.5817 256 104C256 108.418 259.582 112 264 112Z"></path>
<path fill="#2B1463" d="M264 144C268.418 144 272 140.418 272 136C272 131.582 268.418 128 264 128C259.582 128 256 131.582 256 136C256 140.418 259.582 144 264 144Z"></path>
<path fill="#2B1463" d="M264 400C268.418 400 272 396.418 272 392C272 387.582 268.418 384 264 384C259.582 384 256 387.582 256 392C256 396.418 259.582 400 264 400Z"></path>
<path fill="#2B1463" d="M264 448C268.418 448 272 444.418 272 440C272 435.582 268.418 432 264 432C259.582 432 256 435.582 256 440C256 444.418 259.582 448 264 448Z"></path>
<path fill="#2B1463" d="M264 464C268.418 464 272 460.418 272 456C272 451.582 268.418 448 264 448C259.582 448 256 451.582 256 456C256 460.418 259.582 464 264 464Z"></path>
<path fill="#2B1463" d="M280 16C284.418 16 288 12.4183 288 8C288 3.58172 284.418 0 280 0C275.582 0 272 3.58172 272 8C272 12.4183 275.582 16 280 16Z"></path>
<path fill="#2B1463" d="M280 48C284.418 48 288 44.4183 288 40C288 35.5817 284.418 32 280 32C275.582 32 272 35.5817 272 40C272 44.4183 275.582 48 280 48Z"></path>
<path fill="#2B1463" d="M280 160C284.418 160 288 156.418 288 152C288 147.582 284.418 144 280 144C275.582 144 272 147.582 272 152C272 156.418 275.582 160 280 160Z"></path>
<path fill="#2B1463" d="M280 336C284.418 336 288 332.418 288 328C288 323.582 284.418 320 280 320C275.582 320 272 323.582 272 328C272 332.418 275.582 336 280 336Z"></path>
<path fill="#2B1463" d="M280 368C284.418 368 288 364.418 288 360C288 355.582 284.418 352 280 352C275.582 352 272 355.582 272 360C272 364.418 275.582 368 280 368Z"></path>
<path fill="#2B1463" d="M280 384C284.418 384 288 380.418 288 376C288 371.582 284.418 368 280 368C275.582 368 272 371.582 272 376C272 380.418 275.582 384 280 384Z"></path>
<path fill="#2B1463" d="M280 400C284.418 400 288 396.418 288 392C288 387.582 284.418 384 280 384C275.582 384 272 387.582 272 392C272 396.418 275.582 400 280 400Z"></path>
<path fill="#2B1463" d="M280 464C284.418 464 288 460.418 288 456C288 451.582 284.418 448 280 448C275.582 448 272 451.582 272 456C272 460.418 275.582 464 280 464Z"></path>
<path fill="#2B1463" d="M296 80C300.418 80 304 76.4183 304 72C304 67.5817 300.418 64 296 64C291.582 64 288 67.5817 288 72C288 76.4183 291.582 80 296 80Z"></path>
<path fill="#2B1463" d="M296 112C300.418 112 304 108.418 304 104C304 99.5817 300.418 96 296 96C291.582 96 288 99.5817 288 104C288 108.418 291.582 112 296 112Z"></path>
<path fill="#2B1463" d="M296 128C300.418 128 304 124.418 304 120C304 115.582 300.418 112 296 112C291.582 112 288 115.582 288 120C288 124.418 291.582 128 296 128Z"></path>
<path fill="#2B1463" d="M296 176C300.418 176 304 172.418 304 168C304 163.582 300.418 160 296 160C291.582 160 288 163.582 288 168C288 172.418 291.582 176 296 176Z"></path>
<path fill="#2B1463" d="M296 304C300.418 304 304 300.418 304 296C304 291.582 300.418 288 296 288C291.582 288 288 291.582 288 296C288 300.418 291.582 304 296 304Z"></path>
<path fill="#2B1463" d="M296 384C300.418 384 304 380.418 304 376C304 371.582 300.418 368 296 368C291.582 368 288 371.582 288 376C288 380.418 291.582 384 296 384Z"></path>
<path fill="#2B1463" d="M296 416C300.418 416 304 412.418 304 408C304 403.582 300.418 400 296 400C291.582 400 288 403.582 288 408C288 412.418 291.582 416 296 416Z"></path>
<path fill="#2B1463" d="M296 432C300.418 432 304 428.418 304 424C304 419.582 300.418 416 296 416C291.582 416 288 419.582 288 424C288 428.418 291.582 432 296 432Z"></path>
<path fill="#2B1463" d="M296 464C300.418 464 304 460.418 304 456C304 451.582 300.418 448 296 448C291.582 448 288 451.582 288 456C288 460.418 291.582 464 296 464Z"></path>
<path fill="#2B1463" d="M312 48C316.418 48 320 44.4183 320 40C320 35.5817 316.418 32 312 32C307.582 32 304 35.5817 304 40C304 44.4183 307.582 48 312 48Z"></path>
<path fill="#2B1463" d="M312 64C316.418 64 320 60.4183 320 56C320 51.5817 316.418 48 312 48C307.582 48 304 51.5817 304 56C304 60.4183 307.582 64 312 64Z"></path>
<path fill="#2B1463" d="M312 128C316.418 128 320 124.418 320 120C320 115.582 316.418 112 312 112C307.582 112 304 115.582 304 120C304 124.418 307.582 128 312 128Z"></path>
<path fill="#2B1463" d="M312 144C316.418 144 320 140.418 320 136C320 131.582 316.418 128 312 128C307.582 128 304 131.582 304 136C304 140.418 307.582 144 312 144Z"></path>
<path fill="#2B1463" d="M312 176C316.418 176 320 172.418 320 168C320 163.582 316.418 160 312 160C307.582 160 304 163.582 304 168C304 172.418 307.582 176 312 176Z"></path>
<path fill="#2B1463" d="M312 192C316.418 192 320 188.418 320 184C320 179.582 316.418 176 312 176C307.582 176 304 179.582 304 184C304 188.418 307.582 192 312 192Z"></path>
<path fill="#2B1463" d="M312 208C316.418 208 320 204.418 320 200C320 195.582 316.418 192 312 192C307.582 192 304 195.582 304 200C304 204.418 307.582 208 312 208Z"></path>
<path fill="#2B1463" d="M312 224C316.418 224 320 220.418 320 216C320 211.582 316.418 208 312 208C307.582 208 304 211.582 304 216C304 220.418 307.582 224 312 224Z"></path>
<path fill="#2B1463" d="M312 272C316.418 272 320 268.418 320 264C320 259.582 316.418 256 312 256C307.582 256 304 259.582 304 264C304 268.418 307.582 272 312 272Z"></path>
<path fill="#2B1463" d="M312 288C316.418 288 320 284.418 320 280C320 275.582 316.418 272 312 272C307.582 272 304 275.582 304 280C304 284.418 307.582 288 312 288Z"></path>
<path fill="#2B1463" d="M312 304C316.418 304 320 300.418 320 296C320 291.582 316.418 288 312 288C307.582 288 304 291.582 304 296C304 300.418 307.582 304 312 304Z"></path>
<path fill="#2B1463" d="M312 320C316.418 320 320 316.418 320 312C320 307.582 316.418 304 312 304C307.582 304 304 307.582 304 312C304 316.418 307.582 320 312 320Z"></path>
<path fill="#2B1463" d="M312 416C316.418 416 320 412.418 320 408C320 403.582 316.418 400 312 400C307.582 400 304 403.582 304 408C304 412.418 307.582 416 312 416Z"></path>
<path fill="#2B1463" d="M312 448C316.418 448 320 444.418 320 440C320 435.582 316.418 432 312 432C307.582 432 304 435.582 304 440C304 444.418 307.582 448 312 448Z"></path>
<path fill="#2B1463" d="M312 464C316.418 464 320 460.418 320 456C320 451.582 316.418 448 312 448C307.582 448 304 451.582 304 456C304 460.418 307.582 464 312 464Z"></path>
<path fill="#2B1463" d="M328 16C332.418 16 336 12.4183 336 8C336 3.58172 332.418 0 328 0C323.582 0 320 3.58172 320 8C320 12.4183 323.582 16 328 16Z"></path>
<path fill="#2B1463" d="M328 32C332.418 32 336 28.4183 336 24C336 19.5817 332.418 16 328 16C323.582 16 320 19.5817 320 24C320 28.4183 323.582 32 328 32Z"></path>
<path fill="#2B1463" d="M328 48C332.418 48 336 44.4183 336 40C336 35.5817 332.418 32 328 32C323.582 32 320 35.5817 320 40C320 44.4183 323.582 48 328 48Z"></path>
<path fill="#2B1463" d="M328 80C332.418 80 336 76.4183 336 72C336 67.5817 332.418 64 328 64C323.582 64 320 67.5817 320 72C320 76.4183 323.582 80 328 80Z"></path>
<path fill="#2B1463" d="M328 112C332.418 112 336 108.418 336 104C336 99.5817 332.418 96 328 96C323.582 96 320 99.5817 320 104C320 108.418 323.582 112 328 112Z"></path>
<path fill="#2B1463" d="M328 128C332.418 128 336 124.418 336 120C336 115.582 332.418 112 328 112C323.582 112 320 115.582 320 120C320 124.418 323.582 128 328 128Z"></path>
<path fill="#2B1463" d="M328 144C332.418 144 336 140.418 336 136C336 131.582 332.418 128 328 128C323.582 128 320 131.582 320 136C320 140.418 323.582 144 328 144Z"></path>
<path fill="#2B1463" d="M328 176C332.418 176 336 172.418 336 168C336 163.582 332.418 160 328 160C323.582 160 320 163.582 320 168C320 172.418 323.582 176 328 176Z"></path>
<path fill="#2B1463" d="M328 192C332.418 192 336 188.418 336 184C336 179.582 332.418 176 328 176C323.582 176 320 179.582 320 184C320 188.418 323.582 192 328 192Z"></path>
<path fill="#2B1463" d="M328 224C332.418 224 336 220.418 336 216C336 211.582 332.418 208 328 208C323.582 208 320 211.582 320 216C320 220.418 323.582 224 328 224Z"></path>
<path fill="#2B1463" d="M328 288C332.418 288 336 284.418 336 280C336 275.582 332.418 272 328 272C323.582 272 320 275.582 320 280C320 284.418 323.582 288 328 288Z"></path>
<path fill="#2B1463" d="M328 336C332.418 336 336 332.418 336 328C336 323.582 332.418 320 328 320C323.582 320 320 323.582 320 328C320 332.418 323.582 336 328 336Z"></path>
<path fill="#2B1463" d="M328 352C332.418 352 336 348.418 336 344C336 339.582 332.418 336 328 336C323.582 336 320 339.582 320 344C320 348.418 323.582 352 328 352Z"></path>
<path fill="#2B1463" d="M328 368C332.418 368 336 364.418 336 360C336 355.582 332.418 352 328 352C323.582 352 320 355.582 320 360C320 364.418 323.582 368 328 368Z"></path>
<path fill="#2B1463" d="M328 384C332.418 384 336 380.418 336 376C336 371.582 332.418 368 328 368C323.582 368 320 371.582 320 376C320 380.418 323.582 384 328 384Z"></path>
<path fill="#2B1463" d="M328 400C332.418 400 336 396.418 336 392C336 387.582 332.418 384 328 384C323.582 384 320 387.582 320 392C320 396.418 323.582 400 328 400Z"></path>
<path fill="#2B1463" d="M328 416C332.418 416 336 412.418 336 408C336 403.582 332.418 400 328 400C323.582 400 320 403.582 320 408C320 412.418 323.582 416 328 416Z"></path>
<path fill="#2B1463" d="M328 432C332.418 432 336 428.418 336 424C336 419.582 332.418 416 328 416C323.582 416 320 419.582 320 424C320 428.418 323.582 432 328 432Z"></path>
<path fill="#2B1463" d="M344 144C348.418 144 352 140.418 352 136C352 131.582 348.418 128 344 128C339.582 128 336 131.582 336 136C336 140.418 339.582 144 344 144Z"></path>
<path fill="#2B1463" d="M344 256C348.418 256 352 252.418 352 248C352 243.582 348.418 240 344 240C339.582 240 336 243.582 336 248C336 252.418 339.582 256 344 256Z"></path>
<path fill="#2B1463" d="M344 272C348.418 272 352 268.418 352 264C352 259.582 348.418 256 344 256C339.582 256 336 259.582 336 264C336 268.418 339.582 272 344 272Z"></path>
<path fill="#2B1463" d="M344 304C348.418 304 352 300.418 352 296C352 291.582 348.418 288 344 288C339.582 288 336 291.582 336 296C336 300.418 339.582 304 344 304Z"></path>
<path fill="#2B1463" d="M344 320C348.418 320 352 316.418 352 312C352 307.582 348.418 304 344 304C339.582 304 336 307.582 336 312C336 316.418 339.582 320 344 320Z"></path>
<path fill="#2B1463" d="M344 336C348.418 336 352 332.418 352 328C352 323.582 348.418 320 344 320C339.582 320 336 323.582 336 328C336 332.418 339.582 336 344 336Z"></path>
<path fill="#2B1463" d="M344 400C348.418 400 352 396.418 352 392C352 387.582 348.418 384 344 384C339.582 384 336 387.582 336 392C336 396.418 339.582 400 344 400Z"></path>
<path fill="#2B1463" d="M344 432C348.418 432 352 428.418 352 424C352 419.582 348.418 416 344 416C339.582 416 336 419.582 336 424C336 428.418 339.582 432 344 432Z"></path>
<path fill="#2B1463" d="M344 464C348.418 464 352 460.418 352 456C352 451.582 348.418 448 344 448C339.582 448 336 451.582 336 456C336 460.418 339.582 464 344 464Z"></path>
<path fill="#2B1463" d="M360 160C364.418 160 368 156.418 368 152C368 147.582 364.418 144 360 144C355.582 144 352 147.582 352 152C352 156.418 355.582 160 360 160Z"></path>
<path fill="#2B1463" d="M360 176C364.418 176 368 172.418 368 168C368 163.582 364.418 160 360 160C355.582 160 352 163.582 352 168C352 172.418 355.582 176 360 176Z"></path>
<path fill="#2B1463" d="M360 208C364.418 208 368 204.418 368 200C368 195.582 364.418 192 360 192C355.582 192 352 195.582 352 200C352 204.418 355.582 208 360 208Z"></path>
<path fill="#2B1463" d="M360 256C364.418 256 368 252.418 368 248C368 243.582 364.418 240 360 240C355.582 240 352 243.582 352 248C352 252.418 355.582 256 360 256Z"></path>
<path fill="#2B1463" d="M360 272C364.418 272 368 268.418 368 264C368 259.582 364.418 256 360 256C355.582 256 352 259.582 352 264C352 268.418 355.582 272 360 272Z"></path>
<path fill="#2B1463" d="M360 288C364.418 288 368 284.418 368 280C368 275.582 364.418 272 360 272C355.582 272 352 275.582 352 280C352 284.418 355.582 288 360 288Z"></path>
<path fill="#2B1463" d="M360 320C364.418 320 368 316.418 368 312C368 307.582 364.418 304 360 304C355.582 304 352 307.582 352 312C352 316.418 355.582 320 360 320Z"></path>
<path fill="#2B1463" d="M360 336C364.418 336 368 332.418 368 328C368 323.582 364.418 320 360 320C355.582 320 352 323.582 352 328C352 332.418 355.582 336 360 336Z"></path>
<path fill="#2B1463" d="M360 368C364.418 368 368 364.418 368 360C368 355.582 364.418 352 360 352C355.582 352 352 355.582 352 360C352 364.418 355.582 368 360 368Z"></path>
<path fill="#2B1463" d="M360 400C364.418 400 368 396.418 368 392C368 387.582 364.418 384 360 384C355.582 384 352 387.582 352 392C352 396.418 355.582 400 360 400Z"></path>
<path fill="#2B1463" d="M360 464C364.418 464 368 460.418 368 456C368 451.582 364.418 448 360 448C355.582 448 352 451.582 352 456C352 460.418 355.582 464 360 464Z"></path>
<path fill="#2B1463" d="M376 160C380.418 160 384 156.418 384 152C384 147.582 380.418 144 376 144C371.582 144 368 147.582 368 152C368 156.418 371.582 160 376 160Z"></path>
<path fill="#2B1463" d="M376 192C380.418 192 384 188.418 384 184C384 179.582 380.418 176 376 176C371.582 176 368 179.582 368 184C368 188.418 371.582 192 376 192Z"></path>
<path fill="#2B1463" d="M376 208C380.418 208 384 204.418 384 200C384 195.582 380.418 192 376 192C371.582 192 368 195.582 368 200C368 204.418 371.582 208 376 208Z"></path>
<path fill="#2B1463" d="M376 240C380.418 240 384 236.418 384 232C384 227.582 380.418 224 376 224C371.582 224 368 227.582 368 232C368 236.418 371.582 240 376 240Z"></path>
<path fill="#2B1463" d="M376 288C380.418 288 384 284.418 384 280C384 275.582 380.418 272 376 272C371.582 272 368 275.582 368 280C368 284.418 371.582 288 376 288Z"></path>
<path fill="#2B1463" d="M376 304C380.418 304 384 300.418 384 296C384 291.582 380.418 288 376 288C371.582 288 368 291.582 368 296C368 300.418 371.582 304 376 304Z"></path>
<path fill="#2B1463" d="M376 320C380.418 320 384 316.418 384 312C384 307.582 380.418 304 376 304C371.582 304 368 307.582 368 312C368 316.418 371.582 320 376 320Z"></path>
<path fill="#2B1463" d="M376 336C380.418 336 384 332.418 384 328C384 323.582 380.418 320 376 320C371.582 320 368 323.582 368 328C368 332.418 371.582 336 376 336Z"></path>
<path fill="#2B1463" d="M376 400C380.418 400 384 396.418 384 392C384 387.582 380.418 384 376 384C371.582 384 368 387.582 368 392C368 396.418 371.582 400 376 400Z"></path>
<path fill="#2B1463" d="M376 416C380.418 416 384 412.418 384 408C384 403.582 380.418 400 376 400C371.582 400 368 403.582 368 408C368 412.418 371.582 416 376 416Z"></path>
<path fill="#2B1463" d="M392 144C396.418 144 400 140.418 400 136C400 131.582 396.418 128 392 128C387.582 128 384 131.582 384 136C384 140.418 387.582 144 392 144Z"></path>
<path fill="#2B1463" d="M392 160C396.418 160 400 156.418 400 152C400 147.582 396.418 144 392 144C387.582 144 384 147.582 384 152C384 156.418 387.582 160 392 160Z"></path>
<path fill="#2B1463" d="M392 176C396.418 176 400 172.418 400 168C400 163.582 396.418 160 392 160C387.582 160 384 163.582 384 168C384 172.418 387.582 176 392 176Z"></path>
<path fill="#2B1463" d="M392 192C396.418 192 400 188.418 400 184C400 179.582 396.418 176 392 176C387.582 176 384 179.582 384 184C384 188.418 387.582 192 392 192Z"></path>
<path fill="#2B1463" d="M392 240C396.418 240 400 236.418 400 232C400 227.582 396.418 224 392 224C387.582 224 384 227.582 384 232C384 236.418 387.582 240 392 240Z"></path>
<path fill="#2B1463" d="M392 256C396.418 256 400 252.418 400 248C400 243.582 396.418 240 392 240C387.582 240 384 243.582 384 248C384 252.418 387.582 256 392 256Z"></path>
<path fill="#2B1463" d="M392 272C396.418 272 400 268.418 400 264C400 259.582 396.418 256 392 256C387.582 256 384 259.582 384 264C384 268.418 387.582 272 392 272Z"></path>
<path fill="#2B1463" d="M392 288C396.418 288 400 284.418 400 280C400 275.582 396.418 272 392 272C387.582 272 384 275.582 384 280C384 284.418 387.582 288 392 288Z"></path>
<path fill="#2B1463" d="M392 320C396.418 320 400 316.418 400 312C400 307.582 396.418 304 392 304C387.582 304 384 307.582 384 312C384 316.418 387.582 320 392 320Z"></path>
<path fill="#2B1463" d="M392 336C396.418 336 400 332.418 400 328C400 323.582 396.418 320 392 320C387.582 320 384 323.582 384 328C384 332.418 387.582 336 392 336Z"></path>
<path fill="#2B1463" d="M392 352C396.418 352 400 348.418 400 344C400 339.582 396.418 336 392 336C387.582 336 384 339.582 384 344C384 348.418 387.582 352 392 352Z"></path>
<path fill="#2B1463" d="M392 368C396.418 368 400 364.418 400 360C400 355.582 396.418 352 392 352C387.582 352 384 355.582 384 360C384 364.418 387.582 368 392 368Z"></path>
<path fill="#2B1463" d="M392 384C396.418 384 400 380.418 400 376C400 371.582 396.418 368 392 368C387.582 368 384 371.582 384 376C384 380.418 387.582 384 392 384Z"></path>
<path fill="#2B1463" d="M392 400C396.418 400 400 396.418 400 392C400 387.582 396.418 384 392 384C387.582 384 384 387.582 384 392C384 396.418 387.582 400 392 400Z"></path>
<path fill="#2B1463" d="M392 448C396.418 448 400 444.418 400 440C400 435.582 396.418 432 392 432C387.582 432 384 435.582 384 440C384 444.418 387.582 448 392 448Z"></path>
<path fill="#2B1463" d="M392 464C396.418 464 400 460.418 400 456C400 451.582 396.418 448 392 448C387.582 448 384 451.582 384 456C384 460.418 387.582 464 392 464Z"></path>
<path fill="#2B1463" d="M408 176C412.418 176 416 172.418 416 168C416 163.582 412.418 160 408 160C403.582 160 400 163.582 400 168C400 172.418 403.582 176 408 176Z"></path>
<path fill="#2B1463" d="M408 192C412.418 192 416 188.418 416 184C416 179.582 412.418 176 408 176C403.582 176 400 179.582 400 184C400 188.418 403.582 192 408 192Z"></path>
<path fill="#2B1463" d="M408 208C412.418 208 416 204.418 416 200C416 195.582 412.418 192 408 192C403.582 192 400 195.582 400 200C400 204.418 403.582 208 408 208Z"></path>
<path fill="#2B1463" d="M408 224C412.418 224 416 220.418 416 216C416 211.582 412.418 208 408 208C403.582 208 400 211.582 400 216C400 220.418 403.582 224 408 224Z"></path>
<path fill="#2B1463" d="M408 256C412.418 256 416 252.418 416 248C416 243.582 412.418 240 408 240C403.582 240 400 243.582 400 248C400 252.418 403.582 256 408 256Z"></path>
<path fill="#2B1463" d="M408 272C412.418 272 416 268.418 416 264C416 259.582 412.418 256 408 256C403.582 256 400 259.582 400 264C400 268.418 403.582 272 408 272Z"></path>
<path fill="#2B1463" d="M408 288C412.418 288 416 284.418 416 280C416 275.582 412.418 272 408 272C403.582 272 400 275.582 400 280C400 284.418 403.582 288 408 288Z"></path>
<path fill="#2B1463" d="M408 304C412.418 304 416 300.418 416 296C416 291.582 412.418 288 408 288C403.582 288 400 291.582 400 296C400 300.418 403.582 304 408 304Z"></path>
<path fill="#2B1463" d="M408 384C412.418 384 416 380.418 416 376C416 371.582 412.418 368 408 368C403.582 368 400 371.582 400 376C400 380.418 403.582 384 408 384Z"></path>
<path fill="#2B1463" d="M408 416C412.418 416 416 412.418 416 408C416 403.582 412.418 400 408 400C403.582 400 400 403.582 400 408C400 412.418 403.582 416 408 416Z"></path>
<path fill="#2B1463" d="M408 464C412.418 464 416 460.418 416 456C416 451.582 412.418 448 408 448C403.582 448 400 451.582 400 456C400 460.418 403.582 464 408 464Z"></path>
<path fill="#2B1463" d="M424 224C428.418 224 432 220.418 432 216C432 211.582 428.418 208 424 208C419.582 208 416 211.582 416 216C416 220.418 419.582 224 424 224Z"></path>
<path fill="#2B1463" d="M424 240C428.418 240 432 236.418 432 232C432 227.582 428.418 224 424 224C419.582 224 416 227.582 416 232C416 236.418 419.582 240 424 240Z"></path>
<path fill="#2B1463" d="M424 256C428.418 256 432 252.418 432 248C432 243.582 428.418 240 424 240C419.582 240 416 243.582 416 248C416 252.418 419.582 256 424 256Z"></path>
<path fill="#2B1463" d="M424 304C428.418 304 432 300.418 432 296C432 291.582 428.418 288 424 288C419.582 288 416 291.582 416 296C416 300.418 419.582 304 424 304Z"></path>
<path fill="#2B1463" d="M424 320C428.418 320 432 316.418 432 312C432 307.582 428.418 304 424 304C419.582 304 416 307.582 416 312C416 316.418 419.582 320 424 320Z"></path>
<path fill="#2B1463" d="M424 336C428.418 336 432 332.418 432 328C432 323.582 428.418 320 424 320C419.582 320 416 323.582 416 328C416 332.418 419.582 336 424 336Z"></path>
<path fill="#2B1463" d="M424 352C428.418 352 432 348.418 432 344C432 339.582 428.418 336 424 336C419.582 336 416 339.582 416 344C416 348.418 419.582 352 424 352Z"></path>
<path fill="#2B1463" d="M424 432C428.418 432 432 428.418 432 424C432 419.582 428.418 416 424 416C419.582 416 416 419.582 416 424C416 428.418 419.582 432 424 432Z"></path>
<path fill="#2B1463" d="M424 448C428.418 448 432 444.418 432 440C432 435.582 428.418 432 424 432C419.582 432 416 435.582 416 440C416 444.418 419.582 448 424 448Z"></path>
<path fill="#2B1463" d="M424 464C428.418 464 432 460.418 432 456C432 451.582 428.418 448 424 448C419.582 448 416 451.582 416 456C416 460.418 419.582 464 424 464Z"></path>
<path fill="#2B1463" d="M440 144C444.418 144 448 140.418 448 136C448 131.582 444.418 128 440 128C435.582 128 432 131.582 432 136C432 140.418 435.582 144 440 144Z"></path>
<path fill="#2B1463" d="M440 160C444.418 160 448 156.418 448 152C448 147.582 444.418 144 440 144C435.582 144 432 147.582 432 152C432 156.418 435.582 160 440 160Z"></path>
<path fill="#2B1463" d="M440 176C444.418 176 448 172.418 448 168C448 163.582 444.418 160 440 160C435.582 160 432 163.582 432 168C432 172.418 435.582 176 440 176Z"></path>
<path fill="#2B1463" d="M440 192C444.418 192 448 188.418 448 184C448 179.582 444.418 176 440 176C435.582 176 432 179.582 432 184C432 188.418 435.582 192 440 192Z"></path>
<path fill="#2B1463" d="M440 208C444.418 208 448 204.418 448 200C448 195.582 444.418 192 440 192C435.582 192 432 195.582 432 200C432 204.418 435.582 208 440 208Z"></path>
<path fill="#2B1463" d="M440 240C444.418 240 448 236.418 448 232C448 227.582 444.418 224 440 224C435.582 224 432 227.582 432 232C432 236.418 435.582 240 440 240Z"></path>
<path fill="#2B1463" d="M440 256C444.418 256 448 252.418 448 248C448 243.582 444.418 240 440 240C435.582 240 432 243.582 432 248C432 252.418 435.582 256 440 256Z"></path>
<path fill="#2B1463" d="M440 288C444.418 288 448 284.418 448 280C448 275.582 444.418 272 440 272C435.582 272 432 275.582 432 280C432 284.418 435.582 288 440 288Z"></path>
<path fill="#2B1463" d="M440 336C444.418 336 448 332.418 448 328C448 323.582 444.418 320 440 320C435.582 320 432 323.582 432 328C432 332.418 435.582 336 440 336Z"></path>
<path fill="#2B1463" d="M440 384C444.418 384 448 380.418 448 376C448 371.582 444.418 368 440 368C435.582 368 432 371.582 432 376C432 380.418 435.582 384 440 384Z"></path>
<path fill="#2B1463" d="M440 416C444.418 416 448 412.418 448 408C448 403.582 444.418 400 440 400C435.582 400 432 403.582 432 408C432 412.418 435.582 416 440 416Z"></path>
<path fill="#2B1463" d="M440 448C444.418 448 448 444.418 448 440C448 435.582 444.418 432 440 432C435.582 432 432 435.582 432 440C432 444.418 435.582 448 440 448Z"></path>
<path fill="#2B1463" d="M440 464C444.418 464 448 460.418 448 456C448 451.582 444.418 448 440 448C435.582 448 432 451.582 432 456C432 460.418 435.582 464 440 464Z"></path>
<path fill="#2B1463" d="M456 208C460.418 208 464 204.418 464 200C464 195.582 460.418 192 456 192C451.582 192 448 195.582 448 200C448 204.418 451.582 208 456 208Z"></path>
<path fill="#2B1463" d="M456 224C460.418 224 464 220.418 464 216C464 211.582 460.418 208 456 208C451.582 208 448 211.582 448 216C448 220.418 451.582 224 456 224Z"></path>
<path fill="#2B1463" d="M456 256C460.418 256 464 252.418 464 248C464 243.582 460.418 240 456 240C451.582 240 448 243.582 448 248C448 252.418 451.582 256 456 256Z"></path>
<path fill="#2B1463" d="M456 288C460.418 288 464 284.418 464 280C464 275.582 460.418 272 456 272C451.582 272 448 275.582 448 280C448 284.418 451.582 288 456 288Z"></path>
<path fill="#2B1463" d="M456 304C460.418 304 464 300.418 464 296C464 291.582 460.418 288 456 288C451.582 288 448 291.582 448 296C448 300.418 451.582 304 456 304Z"></path>
<path fill="#2B1463" d="M456 336C460.418 336 464 332.418 464 328C464 323.582 460.418 320 456 320C451.582 320 448 323.582 448 328C448 332.418 451.582 336 456 336Z"></path>
<path fill="#2B1463" d="M456 352C460.418 352 464 348.418 464 344C464 339.582 460.418 336 456 336C451.582 336 448 339.582 448 344C448 348.418 451.582 352 456 352Z"></path>
<path fill="#2B1463" d="M456 368C460.418 368 464 364.418 464 360C464 355.582 460.418 352 456 352C451.582 352 448 355.582 448 360C448 364.418 451.582 368 456 368Z"></path>
<path fill="#2B1463" d="M456 400C460.418 400 464 396.418 464 392C464 387.582 460.418 384 456 384C451.582 384 448 387.582 448 392C448 396.418 451.582 400 456 400Z"></path>
<path fill="#2B1463" d="M456 416C460.418 416 464 412.418 464 408C464 403.582 460.418 400 456 400C451.582 400 448 403.582 448 408C448 412.418 451.582 416 456 416Z"></path>
<path fill="#2B1463" d="M456 432C460.418 432 464 428.418 464 424C464 419.582 460.418 416 456 416C451.582 416 448 419.582 448 424C448 428.418 451.582 432 456 432Z"></path>
<path fill="#2B1463" d="M456 448C460.418 448 464 444.418 464 440C464 435.582 460.418 432 456 432C451.582 432 448 435.582 448 440C448 444.418 451.582 448 456 448Z"></path>
<path fill="#2B1463" d="M0 40V72C0 82.6087 4.21427 92.7828 11.7157 100.284C15.4301 103.999 19.8396 106.945 24.6927 108.955C29.5457 110.965 34.7471 112 40 112H72C82.6087 112 92.7828 107.786 100.284 100.284C107.786 92.7828 112 82.6087 112 72V40C112 34.7471 110.965 29.5457 108.955 24.6927C106.945 19.8396 103.999 15.4301 100.284 11.7157C96.5699 8.00139 92.1604 5.05501 87.3073 3.04482C82.4543 1.03463 77.2529 0 72 0H40C34.7471 0 29.5457 1.03463 24.6927 3.04482C19.8396 5.05501 15.4301 8.00139 11.7157 11.7157C4.21427 19.2172 0 29.3913 0 40ZM40 16H72C78.3652 16 84.4697 18.5286 88.9706 23.0294C93.4714 27.5303 96 33.6348 96 40V72C96 78.3652 93.4714 84.4697 88.9706 88.9706C84.4697 93.4714 78.3652 96 72 96H40C33.6348 96 27.5303 93.4714 23.0294 88.9706C18.5286 84.4697 16 78.3652 16 72V40C16 33.6348 18.5286 27.5303 23.0294 23.0294C27.5303 18.5286 33.6348 16 40 16Z" clip-rule="evenodd" fill-rule="evenodd"></path>
<path fill="#2B1463" d="M56 80C69.2548 80 80 69.2548 80 56C80 42.7452 69.2548 32 56 32C42.7452 32 32 42.7452 32 56C32 69.2548 42.7452 80 56 80Z"></path>
<path fill="#2B1463" d="M424 0L392 0C381.391 0 371.217 4.21427 363.716 11.7157C356.214 19.2172 352 29.3913 352 40V72C352 82.6087 356.214 92.7828 363.716 100.284C371.217 107.786 381.391 112 392 112H424C429.253 112 434.454 110.965 439.307 108.955C444.16 106.945 448.57 103.999 452.284 100.284C455.999 96.5699 458.945 92.1604 460.955 87.3073C462.965 82.4543 464 77.2529 464 72V40C464 29.3913 459.786 19.2172 452.284 11.7157C444.783 4.21427 434.609 0 424 0ZM448 40V72C448 78.3652 445.471 84.4697 440.971 88.9706C436.47 93.4714 430.365 96 424 96H392C385.635 96 379.53 93.4714 375.029 88.9706C370.529 84.4697 368 78.3652 368 72V40C368 33.6348 370.529 27.5303 375.029 23.0294C379.53 18.5286 385.635 16 392 16H424C430.365 16 436.47 18.5286 440.971 23.0294C445.471 27.5303 448 33.6348 448 40Z" clip-rule="evenodd" fill-rule="evenodd"></path>
<path fill="#2B1463" d="M384 56C384 69.2548 394.745 80 408 80C421.255 80 432 69.2548 432 56C432 42.7452 421.255 32 408 32C394.745 32 384 42.7452 384 56Z"></path>
<path fill="#2B1463" d="M40 464H72C82.6087 464 92.7828 459.786 100.284 452.284C103.999 448.57 106.945 444.16 108.955 439.307C110.965 434.454 112 429.253 112 424V392C112 381.391 107.786 371.217 100.284 363.716C92.7828 356.214 82.6087 352 72 352H40C29.3913 352 19.2172 356.214 11.7157 363.716C4.21427 371.217 0 381.391 0 392L0 424C0 429.253 1.03464 434.454 3.04483 439.307C5.05502 444.16 8.00139 448.57 11.7157 452.284C19.2172 459.786 29.3913 464 40 464ZM16 424V392C16 385.635 18.5286 379.53 23.0294 375.029C27.5303 370.529 33.6348 368 40 368H72C78.3652 368 84.4697 370.529 88.9706 375.029C93.4714 379.53 96 385.635 96 392V424C96 430.365 93.4714 436.47 88.9706 440.971C84.4697 445.471 78.3652 448 72 448H40C33.6348 448 27.5303 445.471 23.0294 440.971C18.5286 436.47 16 430.365 16 424Z" clip-rule="evenodd" fill-rule="evenodd"></path>
<path fill="#2B1463" d="M80 408C80 394.745 69.2548 384 56 384C42.7452 384 32 394.745 32 408C32 421.255 42.7452 432 56 432C69.2548 432 80 421.255 80 408Z"></path>
<path fill="#5841D8" d="M232.487 189.619C201.841 189.619 177 214.424 177 245.022V268.764C177 273.131 180.545 276.669 184.921 276.669C189.297 276.669 192.868 273.131 192.868 268.764V245.022C192.868 240.641 196.4 237.103 200.789 237.103C205.166 237.103 208.711 240.641 208.711 245.022V268.764C208.711 273.131 212.256 276.669 216.632 276.669C221.021 276.669 224.566 273.131 224.566 268.764V245.022C224.566 240.641 228.111 237.103 232.487 237.103C236.876 237.103 240.434 240.641 240.434 245.022V268.764C240.434 273.131 243.979 276.669 248.355 276.669C252.731 276.669 256.276 273.131 256.276 268.764V245.022C256.276 240.641 259.821 237.103 264.224 237.103C268.6 237.103 272.145 240.641 272.145 245.022V268.764C272.145 273.131 275.69 276.669 280.079 276.669C284.455 276.669 288 273.131 288 268.764V245.022C288 214.424 263.146 189.619 232.487 189.619Z"></path>
</svg>
