<svg xmlns="http://www.w3.org/2000/svg" viewBox="0 0 1000 1000" fill="#00309B"><path d="M5 500.002v.395-.395c.099-89.506 22.55-172.682 67.253-249.726 44.209-74.473 103.55-133.814 178.023-178.023C327.419 27.45 410.694 5 500.002 5c89.308 0 172.583 22.45 249.726 67.253C824.2 116.462 883.54 175.803 927.75 250.276c44.803 77.143 67.253 160.418 67.253 249.726 0 89.308-22.45 172.583-67.253 249.726C883.541 824.2 824.2 883.54 749.728 927.75c-77.143 44.803-160.418 67.253-249.726 67.253-89.308 0-172.583-22.45-249.726-67.253-74.473-44.209-133.814-103.55-178.023-178.022C27.55 672.684 5.099 589.508 5 500.002zm210.66 80.604h57.363c7.912 0 7.912 2.967 9.89 8.901 7.912 33.627 19.78 65.275 35.605 96.924 37.582 72.198 101.868 112.747 183.956 125.605 52.418 9.89 112.748 1.978 167.144-17.803 2.967-1.978 6.923-6.923 6.923-9.89V707.2c-75.165 49.45-148.352 53.407-225.496 10.88-48.461-26.704-81.099-81.1-85.055-137.474h249.232c.989-18.791 5.934-36.593 9.89-54.395H356.1v-55.385h281.87c1.977-19.78 5.933-37.583 10.878-57.363H363.023c3.956-47.473 50.44-128.572 120.66-150.33 67.253-22.748 132.528-16.814 192.858 27.692 4.945-19.78 16.813-72.198 16.813-75.165-58.352-36.594-140.44-42.528-202.748-26.703-114.726 27.692-184.946 98.901-209.671 213.627 0 2.967-2.967 6.923-2.967 10.879H235.44c-3.956 0-5.934 1.978-7.912 6.923-3.956 14.835-5.934 28.681-10.879 43.517 0 1.978-.989 4.945-.989 6.923h57.363v52.417h-34.616c-6.923 0-7.912 2.968-10.879 10.88-3.956 14.835-5.934 27.692-10.879 42.527 0 2.967-.989 2.967-.989 3.956z"></path></svg>