<svg xmlns="http://www.w3.org/2000/svg" viewBox="0 0 1000 1000" fill="#012479"><path d="M500.496 5C223.572 5 5 229.506 5 500.002c0 276.43 224.506 495.001 495.002 495.001 276.43 0 495.001-224.506 495.001-495.001C995.003 226.539 773.464 5 500.496 5zM275.001 803.135v-73.188h60.33V511.375h-54.396c-6.923 0-5.934.99-5.934-3.956v-56.374c0-4.945-2.967-3.956 4.945-3.956h57.363c0-20.769-.99-37.582-1.978-53.406 0-7.913-.99-14.836-.99-22.748 0-35.604.99-59.34 10.88-96.923 16.813-63.297 58.352-102.858 129.56-122.638 61.32-16.813 138.463-.989 210.66 46.484 3.957 2.967 3.957 2.967-.988 8.9-4.945 5.935-20.77 29.671-43.517 52.419-2.967 2.967.99 3.956-6.923 0-33.626-19.78-68.242-34.616-107.802-33.627-102.858 2.967-98.902 57.363-98.902 217.583l4.945 3.956h161.21v58.352c0 5.934 0 5.934-4.946 5.934h-159.23c-1.979 76.154-1.979 145.385-1.979 216.594 78.132 0 157.253 0 236.375-1.978V628.08c0-6.923-.99-3.956 1.978-3.956h77.143v179.012z"></path></svg>