<svg xmlns="http://www.w3.org/2000/svg" viewBox="0 0 1000 1000" fill="#FF0000"><path d="M500.496 5C223.572 5 5 229.506 5 500.002c0 276.43 224.506 495.001 495.002 495.001 276.43 0 495.001-224.506 495.001-495.001C995.003 226.539 773.464 5 500.496 5zM151.374 515.331c0-74.176 16.813-145.385 47.473-198.792 42.527-67.252 93.956-97.912 162.198-97.912 37.583 0 73.187 13.846 103.847 41.539 0 .989.989 2.967.989 3.956v75.165c0 8.9-8.901 11.868-15.825 5.934-33.626-28.682-61.318-36.594-92.967-36.594-78.132 0-125.605 106.814-125.605 206.704 0 57.363 11.868 106.814 38.572 144.396 29.67 41.54 53.407 58.352 87.033 58.352 44.506 0 81.1-13.846 97.913-35.604 1.978-2.967 4.945-2.967 5.934-1.978h.989c2.967.989 3.956 2.967 3.956 4.945v76.154c0 .989-.99 2.967-.99 3.956-34.615 27.692-70.22 40.55-107.802 40.55-62.308 0-113.737-27.693-152.308-82.089-35.605-49.45-53.407-116.703-53.407-208.682zm362.968 107.803c-.989-3.956 1.978-7.912 6.923-8.901l61.32-11.868c4.944-.99 7.911.989 8.9 4.945 15.825 63.297 47.473 84.066 89.012 84.066 43.516 0 76.154-33.627 76.154-78.132 0-49.45-43.517-71.21-92.967-93.957-55.385-25.714-117.693-56.373-117.693-134.506 0-60.33 40.55-107.802 109.78-128.571v-54.396c0-3.956 2.967-7.912 7.913-7.912H716.1c4.945 0 7.912 3.956 7.912 7.912v54.396c46.484 8.9 74.176 34.615 100.88 79.12 2.967 4.946 1.978 9.89-1.978 11.869l-56.374 31.648c-3.956 1.978-7.912 1.978-10.88-2.967-17.801-29.67-40.549-45.494-66.263-45.494-34.616 0-60.33 23.736-60.33 54.395 0 31.649 22.747 45.495 69.231 67.253 25.714 11.869 47.473 22.748 65.275 33.627 51.429 31.648 75.165 72.198 75.165 127.583 0 72.198-49.45 137.473-114.726 152.308v57.363c0 4.945-2.967 7.912-7.912 7.912h-52.417c-4.946 0-7.913-2.967-7.913-7.912v-53.407c-84.066-17.802-118.681-53.407-141.429-146.374z"></path></svg>